<svg width="40" height="29" viewBox="0 0 40 29" fill="none" xmlns="http://www.w3.org/2000/svg">
<g id="ewallet/shopeepay">
<g id="SHOPEEPAY">
<rect id="Background" width="40" height="28.5714" rx="4" fill="#F0592C"/>
<g id="logo">
<path id="shape" fill-rule="evenodd" clip-rule="evenodd" d="M4.63779 18.879C4.92985 19.1579 5.30295 19.2915 5.6757 19.425C6.05113 19.5594 6.4262 19.6937 6.71772 19.9762C6.98274 20.1999 7.01243 20.608 6.86189 20.9049C6.66683 21.2367 6.25657 21.3628 5.89295 21.3777C5.29187 21.3798 4.7703 21.0427 4.29219 20.7172C4.27901 20.7282 4.26492 20.7396 4.2503 20.7515C4.09561 20.877 3.88249 21.0498 4.07911 21.2377C4.86147 21.9554 6.20675 22.2533 7.08345 21.5399C7.70998 21.0363 7.68347 20.0176 7.07815 19.5087C6.78663 19.2045 6.40232 19.0713 6.0177 18.938C5.6974 18.827 5.37687 18.7159 5.10953 18.5059C4.66747 18.2005 4.87207 17.4298 5.37562 17.3164C5.88765 17.1447 6.41453 17.3334 6.87461 17.5602C7.1831 17.733 7.38134 17.1871 7.1036 17.0461C6.50464 16.6485 5.67987 16.5256 5.01625 16.8298C4.25933 17.1542 4.00278 18.3172 4.63779 18.879ZM7.97924 21.3162L7.97981 21.3701C7.98132 21.5265 7.98285 21.6848 8.01423 21.8388C8.13084 21.9872 8.42025 22.0053 8.51672 21.8272C8.59707 21.5417 8.58061 21.2317 8.56419 20.9224C8.53901 20.4483 8.51392 19.9759 8.83793 19.5967C9.19837 19.1186 10.1249 19.1568 10.3221 19.7642C10.3873 20.1225 10.3775 20.4867 10.3677 20.851C10.3589 21.1798 10.35 21.5087 10.3963 21.8335C10.5532 22.054 10.9952 21.9533 10.9454 21.6554C10.9507 21.083 10.955 20.5105 10.9507 19.9381C10.956 19.2479 10.2882 18.6606 9.61075 18.6861C9.22593 18.649 8.88034 18.8355 8.56018 19.0221C8.55985 18.8051 8.56228 18.5878 8.56471 18.3704C8.56996 17.902 8.57521 17.4333 8.55276 16.9655C8.56018 16.7885 8.42025 16.6263 8.23261 16.6729C8.00787 16.6528 7.98136 16.9146 7.98242 17.08C7.98059 17.6919 7.98134 18.3038 7.98209 18.9157C7.98307 19.7159 7.98405 20.516 7.97924 21.3162ZM26.0159 22.0699C26.1358 22.0683 26.2558 22.067 26.3758 22.0657L26.3759 22.0657L26.376 22.0657L26.376 22.0657C26.4947 22.0643 26.6135 22.063 26.7325 22.0615C26.7881 21.7056 26.8508 21.3514 26.9135 20.9973C26.9501 20.7902 26.9867 20.5832 27.022 20.3759C27.1138 20.3744 27.2058 20.3741 27.2979 20.3737H27.2979C27.5924 20.3727 27.8872 20.3717 28.1796 20.3314C28.9895 20.2073 29.6987 19.4165 29.5651 18.5758C29.492 18.0542 28.9938 17.6896 28.4881 17.6662C28.1829 17.6547 27.8777 17.657 27.5725 17.6592C27.3158 17.6611 27.0592 17.663 26.8025 17.6567C26.6516 18.4908 26.5037 19.3253 26.3558 20.1599C26.243 20.7965 26.1301 21.4332 26.0159 22.0699ZM27.2853 18.9168L27.2854 18.9165C27.3202 18.7225 27.3551 18.5286 27.3909 18.3352C27.5134 18.3399 27.6376 18.3361 27.762 18.3323C28.0314 18.3241 28.302 18.3159 28.5602 18.3935C28.9704 18.5758 28.9121 19.1758 28.6195 19.443C28.3302 19.7292 27.9317 19.7137 27.5452 19.6987C27.4077 19.6933 27.2718 19.688 27.1428 19.6964C27.192 19.4367 27.2387 19.1766 27.2853 18.9168ZM11.8688 21.3946C11.4469 20.8985 11.3355 20.1384 11.6695 19.566C11.8942 19.1631 12.3013 18.8864 12.7391 18.7592C13.5607 18.5196 14.4904 19.0741 14.7332 19.8808C14.8498 20.3377 14.8 20.854 14.5243 21.2462C13.9667 22.1261 12.5218 22.2035 11.8688 21.3946ZM14.1565 20.678C14.4629 19.9423 13.6678 19.1218 12.9183 19.3327C12.1762 19.4292 11.7723 20.413 12.2886 20.977C12.7656 21.6406 13.9074 21.4498 14.1565 20.678ZM15.6597 18.7423C15.4625 18.6596 15.259 18.8949 15.2961 19.0879C15.2884 19.7641 15.2898 20.4404 15.2912 21.1168V21.1169C15.2925 21.7511 15.2938 22.3853 15.2876 23.0198C15.2905 23.0675 15.2903 23.1168 15.2901 23.1665V23.1665C15.2895 23.3199 15.2889 23.4774 15.3777 23.6071C15.5431 23.6739 15.8675 23.6993 15.8696 23.4491C15.8986 23.0231 15.8915 22.5956 15.8844 22.1683C15.8811 21.9693 15.8778 21.7704 15.8781 21.5717C16.653 22.1802 17.9623 22.0657 18.4595 21.1604C18.9673 20.361 18.5665 19.2076 17.6972 18.8589C17.1174 18.5567 16.4135 18.7264 15.9226 19.1218C15.9024 19.0846 15.888 19.0387 15.8734 18.9919C15.8368 18.8746 15.7983 18.7513 15.6597 18.7423ZM16.5608 19.4016C17.0644 19.1896 17.7206 19.3561 17.9729 19.8649C18.31 20.378 17.9792 21.0978 17.4322 21.3003C16.8841 21.5621 16.1781 21.2314 15.9958 20.661C15.7901 20.1745 16.1018 19.6062 16.5608 19.4016ZM21.9525 21.6841C21.3249 22.0742 20.4535 22.1272 19.8206 21.7169C18.9609 21.0745 18.9938 19.5797 19.8694 18.967C20.5617 18.473 21.7013 18.7083 22.0437 19.5151C22.1624 19.8066 22.2398 20.148 22.1253 20.4533C22.0272 20.522 21.9073 20.5251 21.7911 20.5281L21.7911 20.5281C21.7604 20.5289 21.7299 20.5297 21.7002 20.5317C21.4759 20.5328 21.2514 20.5318 21.0269 20.5307C20.6043 20.5287 20.1815 20.5267 19.7592 20.5391C19.7771 20.5835 19.7941 20.6297 19.8114 20.6764L19.8115 20.6764L19.8115 20.6764L19.8115 20.6765L19.8115 20.6765C19.9016 20.92 19.9976 21.1796 20.251 21.2908C20.7175 21.5091 21.2539 21.3787 21.7098 21.1953C21.9801 21.0437 22.2186 21.5494 21.9525 21.6841ZM21.185 19.4016C20.9232 19.2935 20.6221 19.2914 20.3518 19.3667C20.1177 19.4319 19.9973 19.6476 19.8853 19.8484C19.8644 19.8859 19.8438 19.9228 19.8228 19.9582C20.4143 19.9677 21.0069 19.9667 21.5995 19.9582C21.5788 19.9193 21.5592 19.8786 21.5394 19.8375L21.5394 19.8375L21.5394 19.8375L21.5394 19.8375C21.4556 19.6637 21.3685 19.4831 21.185 19.4016ZM23.2819 21.6565C23.8999 22.1367 24.8148 22.0827 25.4689 21.7021C25.7594 21.5526 25.5018 20.9992 25.2081 21.2081C24.7777 21.3862 24.2752 21.4901 23.8289 21.3109C23.5455 21.2003 23.4356 20.913 23.3342 20.6482C23.32 20.6108 23.3058 20.574 23.2914 20.5381C23.7258 20.5265 24.1602 20.5288 24.5946 20.531C24.7963 20.5321 24.998 20.5331 25.1996 20.5328C25.2331 20.5306 25.2677 20.53 25.3027 20.5294C25.436 20.5271 25.5747 20.5247 25.6788 20.4331C25.7975 19.99 25.6396 19.5034 25.3544 19.1568C24.8371 18.6267 23.9169 18.5546 23.3338 19.0211C22.561 19.6497 22.526 20.9992 23.2819 21.6565ZM23.3635 19.9603C23.5109 19.5978 23.8141 19.2628 24.2445 19.3158C24.6728 19.2596 25.0226 19.5596 25.1318 19.9593C24.5424 19.9667 23.9529 19.9656 23.3635 19.9603ZM31.4341 19.5416C30.9942 19.2522 30.4514 19.4939 30.091 19.7971L29.668 19.425C30.021 19.1144 30.445 18.8599 30.9263 18.8302C31.3387 18.8059 31.8242 18.8472 32.1136 19.1811C32.3299 19.4059 32.3649 19.7462 32.3151 20.0419C32.2351 20.5477 32.1428 21.0512 32.0504 21.5549L32.0503 21.5549L32.0503 21.5553L32.05 21.5569C32.0188 21.7271 31.9875 21.8974 31.9568 22.0678C31.7278 22.0668 31.4988 22.0657 31.2709 22.0657L31.3514 21.6968C30.9094 22.141 30.1726 22.3519 29.6171 21.9936C29.0934 21.6416 29.2068 20.8349 29.6415 20.4575C30.1768 19.955 30.9857 19.9932 31.644 20.1872C31.6366 20.1354 31.6339 20.0793 31.6313 20.0221V20.0221C31.6226 19.8358 31.6134 19.6381 31.4341 19.5416ZM31.5444 20.749C31.132 20.5837 30.6221 20.4713 30.2256 20.7353C29.9563 20.9059 29.8546 21.3734 30.1906 21.5325C30.7747 21.7869 31.3779 21.3003 31.5444 20.749ZM32.9387 19.8761C32.8559 19.5612 32.7732 19.2463 32.6893 18.932H33.4642C33.5454 19.2563 33.6228 19.5816 33.7002 19.9068C33.7905 20.2865 33.8808 20.6663 33.9773 21.0448C34.2667 20.6043 34.5294 20.148 34.7921 19.6917C34.9384 19.4376 35.0847 19.1834 35.2357 18.932C35.4891 18.932 35.7425 18.9331 35.997 18.9341L36 18.9341C35.6633 19.4781 35.3289 20.0235 34.9945 20.5689C34.4138 21.5158 33.8332 22.4628 33.2405 23.4025C33.0801 23.4004 32.9197 23.3992 32.7593 23.398C32.6791 23.3974 32.5988 23.3968 32.5186 23.3961C32.6276 23.223 32.7378 23.0507 32.8481 22.8783C33.0606 22.5461 33.2731 22.2138 33.4769 21.8759C33.2897 21.2118 33.1141 20.5438 32.9387 19.8761Z" fill="white"/>
</g>
</g>
</g>
</svg>
