<svg width="40" height="29" viewBox="0 0 40 29" fill="none" xmlns="http://www.w3.org/2000/svg">
<g id="ewallet/dana">
<g id="DANA">
<rect id="Background" width="40" height="28.5714" rx="4" fill="#108EE9"/>
<g id="logo">
<path id="shape" fill-rule="evenodd" clip-rule="evenodd" d="M8.634 9.71436H8.50067C7.39267 9.73769 6.30133 10.181 5.49667 10.9437C4.55333 11.817 4.012 13.0897 4 14.3724V14.4917C4.02267 15.7477 4.54867 16.991 5.46467 17.855C6.276 18.639 7.388 19.0957 8.51667 19.1144H8.64733C10.1727 19.097 11.6407 18.243 12.434 16.945C13.1127 15.869 13.3213 14.5157 13.02 13.2817C12.7673 12.217 12.13 11.247 11.2473 10.599C10.4973 10.039 9.56933 9.73169 8.634 9.71436ZM6.56267 13.5337C6.99333 13.6597 7.45267 13.583 7.872 13.4477C8.10308 13.3715 8.33056 13.2844 8.55804 13.1973C8.92582 13.0566 9.29361 12.9158 9.67667 12.821C10.1893 12.701 10.7653 12.7977 11.176 13.1377C11.2572 13.2157 11.2571 13.3285 11.2569 13.4354V13.4354V13.4354V13.4354V13.4354C11.2569 13.4619 11.2568 13.4879 11.258 13.513C11.2534 13.8572 11.255 14.2014 11.2567 14.5456V14.5457C11.2591 15.053 11.2615 15.5602 11.244 16.067C11.1821 16.0407 11.1206 16.0128 11.0589 15.9848L11.0589 15.9848L11.0589 15.9848L11.0589 15.9848L11.0589 15.9848L11.0589 15.9848C10.8052 15.8696 10.55 15.7537 10.2647 15.7484C9.66957 15.7156 9.11946 15.9132 8.5683 16.111C8.11983 16.2721 7.67066 16.4333 7.196 16.471C6.76533 16.501 6.31533 16.399 5.966 16.1397C5.89444 16.0406 5.89801 15.9167 5.9015 15.7953C5.90292 15.7459 5.90433 15.697 5.90067 15.6504C5.9073 15.3423 5.90436 15.0337 5.90142 14.7251V14.7251C5.89669 14.2274 5.89195 13.7298 5.92733 13.2344C6.00592 13.2694 6.08153 13.311 6.15712 13.3527C6.28737 13.4244 6.41755 13.4961 6.56267 13.5337ZM15.6006 12.0555C15.3648 12.057 15.129 12.0585 14.8933 12.0557C14.893 12.847 14.893 13.6385 14.893 14.4301C14.893 15.2217 14.893 16.0134 14.8927 16.805C15.1553 16.8054 15.4177 16.8054 15.6802 16.8054H15.6813C15.9435 16.8054 16.2057 16.8054 16.468 16.8057C16.85 16.8064 17.236 16.733 17.5773 16.5564C18.4853 16.111 19.0113 15.0404 18.8373 14.0477C18.6933 13.0144 17.7907 12.1364 16.742 12.0664C16.3617 12.0507 15.9811 12.0531 15.6006 12.0555ZM15.8856 15.3947C15.8876 14.6222 15.8895 13.8496 15.8827 13.077C15.9845 13.0802 16.087 13.0784 16.1895 13.0766C16.4138 13.0727 16.6384 13.0688 16.858 13.1164C17.4053 13.2417 17.8273 13.7517 17.866 14.309C17.924 14.8637 17.602 15.4364 17.09 15.663C16.8125 15.7942 16.5074 15.7878 16.2056 15.7815H16.2056H16.2055H16.2055H16.2055C16.0977 15.7792 15.9903 15.777 15.8847 15.781L15.8856 15.3947ZM20.6013 13.9764C20.6333 12.9464 21.5607 12.021 22.6033 12.0564C23.6253 12.0457 24.5227 12.951 24.5633 13.961C24.5739 14.5413 24.5723 15.1218 24.5707 15.7022C24.5696 16.0694 24.5686 16.4366 24.5707 16.8037L24.57 16.8037C24.2389 16.8044 23.9084 16.805 23.578 16.8037C23.5763 16.6337 23.5765 16.4637 23.5767 16.2937C23.5768 16.1238 23.577 15.954 23.5753 15.7844C23.1856 15.7863 22.7961 15.786 22.4066 15.7856H22.4064H22.4064H22.4064H22.4063C22.1337 15.7854 21.8612 15.7851 21.5887 15.7857C21.5877 15.9124 21.5882 16.0392 21.5886 16.1661V16.1661V16.1661V16.1662V16.1663C21.5895 16.3804 21.5903 16.5945 21.584 16.8084C21.364 16.803 21.1443 16.8036 20.9247 16.8042C20.8149 16.8045 20.7051 16.8048 20.5953 16.8044C20.5965 16.4616 20.5956 16.1187 20.5947 15.7758C20.5932 15.1758 20.5916 14.5758 20.6013 13.9764ZM21.8427 13.4177C21.5721 13.71 21.58 14.1045 21.5875 14.4825V14.4825V14.4826V14.4826C21.5895 14.5787 21.5914 14.6737 21.5887 14.7657C21.8535 14.766 22.1183 14.7658 22.3833 14.7656H22.3836C22.7809 14.7654 23.1782 14.7652 23.5753 14.7664C23.5729 14.6747 23.575 14.5801 23.5771 14.4845C23.5854 14.115 23.5941 13.7302 23.3393 13.4384C22.984 12.9717 22.2107 12.961 21.8427 13.4177ZM26.3073 13.987C26.3367 13.0804 27.0453 12.239 27.9447 12.0864C28.614 11.9577 29.3313 12.221 29.7673 12.7424C30.1047 13.1137 30.2767 13.6164 30.2767 14.115C30.278 14.7128 30.2776 15.3102 30.2771 15.9077V15.9078L30.2771 15.9153C30.2769 16.2116 30.2767 16.5079 30.2767 16.8044C30.1642 16.805 30.0517 16.8046 29.9392 16.8042H29.9391C29.7221 16.8034 29.5049 16.8027 29.288 16.8097C29.2808 16.3018 29.282 15.7936 29.2831 15.2855C29.284 14.8946 29.2849 14.5038 29.282 14.113C29.2873 13.7504 29.0933 13.389 28.776 13.209C28.4467 13.0117 28.0007 13.041 27.6987 13.2784C27.4373 13.4737 27.2913 13.799 27.296 14.123C27.2945 14.6339 27.2947 15.1445 27.2949 15.6552C27.2951 16.0382 27.2952 16.4212 27.2947 16.8044C27.1737 16.8039 27.0527 16.8041 26.9318 16.8043C26.7201 16.8047 26.5084 16.8051 26.2967 16.8017C26.3037 16.3494 26.3024 15.897 26.3011 15.4446C26.2997 14.9587 26.2984 14.4728 26.3073 13.987ZM32.3313 12.9764C32.7147 12.379 33.4227 11.9937 34.138 12.0617C34.9467 12.1117 35.664 12.7277 35.888 13.4977C35.9707 13.7577 35.9746 14.0292 35.9785 14.3006C35.9808 14.4557 35.983 14.6109 36 14.7637V16.799C35.746 16.806 35.492 16.8051 35.238 16.8043C35.1533 16.804 35.0687 16.8037 34.984 16.8037C34.9836 16.6942 34.9838 16.5846 34.984 16.4751V16.475C34.9844 16.2437 34.9848 16.0122 34.9793 15.781C34.5772 15.7871 34.1748 15.7863 33.7724 15.7855H33.7723C33.5136 15.7849 33.2548 15.7844 32.996 15.7857C32.9957 15.9554 32.9957 16.125 32.9957 16.2948C32.9957 16.4645 32.9957 16.6344 32.9953 16.8044H32.002C32.0017 16.3667 32.0017 15.9292 32.0017 15.4918C32.0017 15.0544 32.0017 14.617 32.0013 14.1797C31.9967 13.7584 32.0973 13.3304 32.3313 12.9764ZM33.2447 13.4244C32.9794 13.7156 32.9873 14.1069 32.9949 14.4821V14.4821C32.9968 14.5783 32.9987 14.6735 32.996 14.7657C33.4375 14.7661 33.879 14.766 34.3204 14.7658H34.3213L34.9833 14.7657C34.9804 14.6717 34.9825 14.5746 34.9846 14.4765C34.9924 14.1086 35.0006 13.7264 34.7453 13.4364C34.3867 12.969 33.61 12.963 33.2447 13.4244Z" fill="white"/>
</g>
</g>
</g>
</svg>
