<svg width="40" height="29" viewBox="0 0 40 29" fill="none" xmlns="http://www.w3.org/2000/svg">
<g id="ewallet/gopay">
<g id="GOPAY">
<rect id="Background" width="40" height="28.5714" rx="4" fill="white"/>
<g id="logo">
<path id="Combined Shape" fill-rule="evenodd" clip-rule="evenodd" d="M6.44949 10.9413C6.82884 10.8795 7.21805 10.8867 7.59919 10.9248C7.95257 10.9978 8.30908 11.0793 8.63334 11.2428C9.28948 11.5558 9.84798 12.0633 10.2202 12.688C10.5288 13.2654 10.741 13.913 10.7092 14.5745C10.7182 15.9325 9.85783 17.2264 8.63916 17.8037C7.84911 18.1795 6.93006 18.231 6.08582 18.0249C5.51477 17.8494 4.96389 17.5654 4.54781 17.1292C4.15144 16.7615 3.85226 16.293 3.66236 15.7887C3.41468 15.1684 3.39229 14.4787 3.49754 13.8252C3.69013 12.8547 4.28983 11.9647 5.13856 11.4488C5.53359 11.1886 5.98773 11.034 6.44949 10.9413ZM5.9425 12.684C5.65675 12.7131 5.34458 12.8135 5.18648 13.0714C5.01182 13.3185 4.99359 13.6276 4.97628 13.9212L4.97195 13.9932C4.96839 14.0672 4.96177 14.1412 4.95516 14.2152C4.94182 14.3644 4.92847 14.5138 4.94015 14.6641C4.94885 14.7656 4.955 14.8674 4.96114 14.9693C4.9765 15.2238 4.99185 15.4784 5.04719 15.7282C5.11572 16.0431 5.39922 16.2872 5.71184 16.3445C6.29447 16.4495 6.888 16.4403 7.47797 16.4311L7.63995 16.4287C7.88135 16.4153 8.12276 16.3906 8.36148 16.3526C8.71888 16.306 9.03464 16.0149 9.09331 15.6566C9.19587 15.2172 9.21423 14.764 9.18378 14.3156C9.12645 14.0281 8.92311 13.7688 8.64677 13.6635C8.52227 13.6034 8.38418 13.6037 8.24872 13.6041H8.24867C8.2248 13.6042 8.20102 13.6042 8.1774 13.604C7.91095 13.6043 7.6445 13.6041 7.37806 13.604C6.91183 13.6037 6.44566 13.6035 5.97967 13.6057C5.9261 13.6067 5.8761 13.5884 5.82655 13.5703C5.80816 13.5635 5.78983 13.5568 5.77141 13.5511C5.77006 13.4508 5.77365 13.3007 5.90846 13.2981C6.25948 13.2901 6.61084 13.2925 6.96218 13.2948H6.96218C7.4249 13.2979 7.88758 13.301 8.34938 13.2806C8.29922 13.0477 8.15725 12.8045 7.9127 12.74C7.6919 12.6809 7.46348 12.6509 7.23641 12.6298C7.17165 12.629 7.10678 12.6278 7.04186 12.6265L7.04185 12.6265C6.67401 12.6195 6.30453 12.6124 5.9425 12.684ZM8.44344 14.6403C8.32565 14.6085 8.18457 14.6551 8.14336 14.7765C8.1175 14.9162 8.15894 15.0508 8.2001 15.1846C8.21739 15.2407 8.23463 15.2967 8.24682 15.3529L8.35431 15.4152C8.40044 15.3883 8.44747 15.3641 8.49629 15.3431C8.50156 15.2249 8.53004 15.1112 8.55851 14.9975C8.57114 14.9471 8.58377 14.8967 8.59437 14.8459C8.57243 14.7622 8.51734 14.6856 8.44344 14.6403Z" fill="#01ACD7"/>
<path id="Combined Shape_2" fill-rule="evenodd" clip-rule="evenodd" d="M15.3107 12.0573C14.9654 11.922 14.582 11.9373 14.2201 11.982C13.4372 12.103 12.7502 12.7004 12.5182 13.4578C12.4129 13.7579 12.4152 14.0817 12.4429 14.3948C12.5365 15.1956 13.1389 15.8987 13.9035 16.1437C14.4454 16.3076 15.0706 16.313 15.5709 16.0196C15.6362 15.9835 15.6956 15.9389 15.7549 15.8942L15.7549 15.8942L15.7549 15.8942C15.8103 15.8525 15.8657 15.8108 15.9261 15.776L15.927 15.8176C15.9344 16.1477 15.9428 16.5211 15.6923 16.7703C15.5243 16.9754 15.2704 17.0834 15.0137 17.1228C14.4588 17.2244 13.8721 17.035 13.4596 16.6552C13.3679 16.7486 13.2718 16.8378 13.1758 16.927L13.1758 16.927L13.1758 16.927C13.0203 17.0714 12.865 17.2157 12.7282 17.3776C13.16 17.7861 13.7068 18.0808 14.2998 18.1592C14.8794 18.2322 15.5028 18.1968 16.0192 17.8989C16.4572 17.6557 16.8021 17.2406 16.9374 16.7564C17.0213 16.5151 17.0202 16.2574 17.0191 16.0053L17.0189 15.9628C17.0184 14.6276 17.0184 13.293 17.0189 11.9579C16.809 11.9553 16.5991 11.9554 16.3893 11.9555C16.2377 11.9556 16.0861 11.9557 15.9346 11.9547L15.9351 12.0647C15.9358 12.1839 15.9364 12.3031 15.9337 12.4223C15.7469 12.2696 15.5404 12.1348 15.3107 12.0573ZM13.9353 13.2209C14.1149 13.0614 14.3531 13.0005 14.5856 12.966C15.0482 12.8957 15.5687 13.1076 15.8056 13.5218C15.9011 13.6897 15.8972 13.8794 15.8932 14.0674C15.8918 14.1332 15.8905 14.1987 15.8934 14.2631C15.9323 14.6581 15.6246 15.0066 15.2722 15.1409C14.8462 15.3013 14.3209 15.312 13.9491 15.016C13.392 14.5981 13.3808 13.6446 13.9353 13.2209ZM24.8263 11.9556C24.3632 11.9525 23.8803 12.0909 23.5467 12.425C23.5437 12.3823 23.5409 12.3396 23.5382 12.297C23.5334 12.2235 23.5286 12.1502 23.5229 12.077C23.1584 12.0725 22.7938 12.0712 22.4292 12.077C22.4297 13.1824 22.4297 14.2877 22.4296 15.3931V15.4026C22.4295 16.2284 22.4295 17.0543 22.4297 17.8801C22.6858 17.8966 22.9426 17.8952 23.1994 17.8938H23.1994H23.1994H23.1994H23.1994H23.1995C23.3188 17.8931 23.4382 17.8924 23.5574 17.8936C23.5658 17.3814 23.5639 16.869 23.5621 16.3566C23.5614 16.1816 23.5608 16.0066 23.5606 15.8315C24.365 16.4707 25.6454 16.4003 26.3687 15.6672C27.1561 14.8776 27.2014 13.4703 26.4431 12.6462C26.044 12.1876 25.4313 11.9341 24.8263 11.9556ZM23.6134 13.6181C23.7312 13.2639 24.0913 13.0525 24.4411 12.983C24.8016 12.91 25.2047 13.001 25.4833 13.2464C25.9554 13.6755 25.9589 14.5 25.5138 14.9492C25.0672 15.3814 24.2772 15.3734 23.8333 14.9412C23.6443 14.7741 23.5453 14.5125 23.5619 14.2626C23.5656 14.1967 23.5639 14.1299 23.5621 14.0629C23.5581 13.9115 23.5541 13.7598 23.6134 13.6181ZM19.1588 12.0107C19.7953 11.8826 20.4917 11.9596 21.0457 12.3139C21.4672 12.5683 21.7879 12.9808 21.9312 13.4515C22.1278 14.07 22.0396 14.7777 21.6714 15.316C21.3055 15.8584 20.6807 16.1907 20.0358 16.253C19.6385 16.2799 19.2278 16.2664 18.852 16.1218C18.2295 15.9126 17.7073 15.3989 17.5236 14.7643C17.3266 14.1695 17.4179 13.4887 17.7556 12.962C18.0683 12.4693 18.5923 12.133 19.1588 12.0107ZM19.4253 12.9889C19.2668 13.0341 19.1185 13.1129 18.9886 13.2137C18.539 13.568 18.4292 14.2685 18.7495 14.7428C19.1154 15.346 20.0595 15.4652 20.5549 14.96C20.7972 14.7374 20.9123 14.4051 20.88 14.0794C20.9073 13.3575 20.1065 12.7757 19.4253 12.9889ZM29.8219 11.9825C29.1702 11.8969 28.4644 11.9879 27.9238 12.386C27.6116 12.6342 27.3447 12.9754 27.2918 13.3812C27.4474 13.4079 27.6018 13.4415 27.7561 13.4752L27.7562 13.4752L27.7562 13.4752C27.9572 13.519 28.1583 13.5629 28.3622 13.5913C28.4505 13.237 28.7577 12.9553 29.1183 12.8971C29.3516 12.8567 29.5944 12.8688 29.8214 12.9378C30.0198 13.0023 30.1708 13.2195 30.0839 13.4264C29.922 13.574 29.7019 13.6186 29.4921 13.6611L29.492 13.6612C29.465 13.6666 29.4381 13.6721 29.4116 13.6777L29.3024 13.6932C28.77 13.7684 28.2165 13.8466 27.7634 14.1542C27.2031 14.5461 27.2009 15.4683 27.7191 15.8965C28.1468 16.2642 28.7492 16.3063 29.2858 16.2351C29.6571 16.1657 30.031 16.0049 30.268 15.699C30.2693 15.7744 30.2693 15.8499 30.2693 15.9254C30.2693 16.001 30.2693 16.0765 30.2706 16.1522C30.3523 16.1521 30.434 16.1519 30.5157 16.1516H30.5158H30.516H30.516H30.516C30.7752 16.1508 31.0347 16.1499 31.2945 16.154C31.2955 15.6488 31.2954 15.1438 31.2952 14.6388V14.6364C31.2951 14.2571 31.295 13.8778 31.2954 13.4986C31.2994 13.1909 31.187 12.8912 31.0177 12.6377C30.7427 12.2517 30.276 12.0568 29.8219 11.9825ZM28.412 15.0478C28.3528 14.9076 28.4671 14.7692 28.5813 14.7002C28.8116 14.5733 29.0709 14.5259 29.3296 14.4786C29.6415 14.4217 29.9526 14.3648 30.2115 14.169C30.2091 14.2305 30.211 14.2949 30.213 14.3602C30.2198 14.5806 30.2268 14.8112 30.0651 14.9756C29.7525 15.2874 29.2764 15.3447 28.8558 15.3178C28.6811 15.3075 28.4514 15.2471 28.412 15.0478ZM31.7453 12.0739C31.6249 12.0741 31.5045 12.0743 31.3841 12.0743C31.7018 12.7382 32.0265 13.3987 32.3513 14.0592C32.656 14.679 32.9608 15.2989 33.2598 15.9216C33.1128 16.2447 32.953 16.5619 32.7933 16.879C32.6244 17.2143 32.4555 17.5495 32.3018 17.8918C32.4312 17.8912 32.5606 17.8922 32.6901 17.8932C32.978 17.8954 33.266 17.8976 33.5536 17.8828C34.4973 15.9489 35.44 14.015 36.3819 12.0801C35.9587 12.0694 35.5359 12.0712 35.1131 12.0783C34.7073 12.9692 34.2966 13.8582 33.8837 14.7454C33.7619 14.4825 33.6388 14.2201 33.5158 13.9578C33.3148 13.5293 33.1138 13.1008 32.9185 12.67C32.8872 12.5998 32.8527 12.5311 32.8183 12.4623C32.7551 12.3362 32.6919 12.2101 32.6484 12.0756C32.3474 12.0728 32.0464 12.0733 31.7453 12.0739Z" fill="#010101"/>
</g>
</g>
</g>
</svg>
