<svg width="40" height="30" viewBox="0 0 40 30" fill="none" xmlns="http://www.w3.org/2000/svg">
<g id="ewallet/ovo">
<g id="OVO">
<rect id="Background" width="40" height="29.0909" rx="4" fill="#4C3494"/>
<g id="logo">
<path id="Combined Shape" fill-rule="evenodd" clip-rule="evenodd" d="M32.6772 11.0313C31.7375 10.1863 30.4454 9.79146 29.2025 9.91217C28.8919 9.94101 28.5839 9.99727 28.2848 10.0874C27.1896 10.4082 26.2289 11.1723 25.6554 12.1743C24.8843 13.4957 24.7919 15.1916 25.3871 16.6006C25.8292 17.662 26.6741 18.5429 27.7099 19.0101C28.8864 19.5407 30.2786 19.5567 31.4655 19.0507C32.0705 18.7915 32.6192 18.3955 33.0591 17.8995C33.8624 17.0061 34.2897 15.787 34.2625 14.5799C34.2555 13.2411 33.6784 11.9065 32.6772 11.0313ZM27.2959 12.7073C27.7375 12.0368 28.466 11.5693 29.2546 11.4696C29.8799 11.3831 30.5356 11.5099 31.0773 11.8435C31.5977 12.1579 32.0044 12.6511 32.2474 13.2133C32.7276 14.3349 32.6199 15.725 31.8949 16.7142C31.5512 17.1828 31.0686 17.5481 30.5206 17.7283C29.8323 17.9565 29.0574 17.9074 28.4055 17.5858C27.8914 17.3341 27.4616 16.9168 27.1766 16.4147C26.5394 15.2874 26.5762 13.7869 27.2959 12.7073ZM12.4817 10.4062C11.6337 9.95864 10.6468 9.80909 9.70328 9.93656C8.79368 10.0558 7.9194 10.4575 7.24096 11.0877C6.54503 11.7215 6.05649 12.5814 5.84526 13.5062C5.59032 14.6039 5.70782 15.7928 6.19567 16.808C6.64365 17.7562 7.42211 18.5385 8.36038 18.9804C9.28957 19.4205 10.3607 19.5259 11.3609 19.3119C12.3219 19.1082 13.2095 18.5713 13.8491 17.8135C14.459 17.0978 14.8388 16.1888 14.9455 15.2491C15.0486 14.3728 14.921 13.4681 14.5702 12.6601C14.1544 11.6955 13.4057 10.8819 12.4817 10.4062ZM8.7094 11.9756C9.08359 11.7004 9.52737 11.5273 9.98445 11.4675C10.5317 11.3956 11.1014 11.4839 11.5963 11.7356C12.1789 12.0251 12.6464 12.5318 12.9217 13.1271C13.2343 13.7908 13.3193 14.556 13.2014 15.2796C13.0927 15.9397 12.7965 16.5767 12.323 17.0467C11.9159 17.4651 11.3745 17.7439 10.8035 17.834C10.104 17.9462 9.36161 17.792 8.77549 17.3832C8.17014 16.972 7.74524 16.3157 7.56164 15.6032C7.38049 14.8996 7.40322 14.1391 7.63998 13.4519C7.84141 12.8665 8.21141 12.3366 8.7094 11.9756ZM15.3675 10.149L15.3672 10.149C15.367 10.4889 15.367 10.8289 15.3671 11.1691C15.3672 11.3392 15.3672 11.5092 15.3672 11.6793C15.5938 11.6799 15.8202 11.6798 16.0467 11.6797C16.1222 11.6797 16.1978 11.6797 16.2733 11.6797C16.8338 12.9925 17.3936 14.3056 17.9533 15.6187C18.3596 16.5718 18.7659 17.5249 19.1724 18.4778C19.3616 18.92 19.7592 19.2651 20.2219 19.3744C20.3902 19.4192 20.5638 19.4174 20.7369 19.4156C20.7907 19.415 20.8444 19.4145 20.8979 19.4153C21.4288 18.1419 21.9615 16.8693 22.4942 15.5967C23.1292 14.0798 23.7641 12.5629 24.3961 11.0448C24.4122 10.8601 24.4097 10.6736 24.4072 10.4871C24.4058 10.3741 24.4043 10.2612 24.4069 10.1486H21.47V10.149C21.4697 10.6594 21.4693 11.1696 21.47 11.6797C21.5979 11.6799 21.7257 11.6798 21.8536 11.6798C22.024 11.6797 22.1945 11.6797 22.3649 11.6801C22.1311 12.2633 21.8979 12.8467 21.6646 13.4302C21.2124 14.5616 20.7601 15.6929 20.3037 16.8224C19.9488 15.9666 19.5939 15.1108 19.239 14.2549C18.8831 13.3966 18.5272 12.5383 18.1712 11.6801C18.3216 11.6795 18.472 11.6796 18.6225 11.6797C18.773 11.6798 18.9236 11.6799 19.0741 11.6793V10.149C17.8387 10.1482 16.6032 10.1486 15.3675 10.149Z" fill="white"/>
</g>
</g>
</g>
</svg>
